# xmcd
# Track frame offsets:
# 183
# 21805
# 38538
# 64958
# 87270
# 105830
# 140990
# 157653
# 185820
# 209163
# 230060
# 252143
# 270165
# 302438
# 323825
#
# Disc length: 4554 seconds
# Revision: 0
# Processed by: cddbd v1.4PL0 Copyright (c) Steve Scherf et al.
# Submitted via: VisiTrax 2.9.5.181 - For more info visit www.synapsa.com
#
DISCID=c711c80f
DTITLE=kenn lending blues band - Heartache motel
DYEAR=1993
DGENRE=blues
TTITLE0=Just one night
TTITLE1=I don't need nobody
TTITLE2=Let's love and still be free
TTITLE3=Sometimes it's hard
TTITLE4=I wish i was a poet
TTITLE5=Lost you forever
TTITLE6=Let me play with your poodle
TTITLE7=I want to be free
TTITLE8=Sunday morning
TTITLE9=Automobile blues
TTITLE10=Roadlife
TTITLE11=All i know
TTITLE12=The saddest feeling
TTITLE13=I had a dream last nighe
TTITLE14=When you saw me cry
EXTD=
EXTT0=
EXTT1=
EXTT2=
EXTT3=
EXTT4=
EXTT5=
EXTT6=
EXTT7=
EXTT8=
EXTT9=
EXTT10=
EXTT11=
EXTT12=
EXTT13=
EXTT14=
PLAYORDER=
